<svg width="848" height="238" viewBox="0 0 848 238" fill="none" xmlns="http://www.w3.org/2000/svg">
<g clip-path="url(#clip0_3_1626)">
<path d="M335.07 182.64C328.94 182.25 322.96 181.01 317.14 178.91C311.32 176.81 306.19 173.97 301.77 170.4C297.42 166.75 294.16 162.47 291.99 157.57L312.6 148.71C313.61 150.81 315.36 152.87 317.84 154.89C320.4 156.91 323.39 158.58 326.81 159.91C330.23 161.15 333.8 161.78 337.52 161.78C341.24 161.78 344.55 161.27 347.65 160.26C350.83 159.17 353.43 157.54 355.45 155.36C357.47 153.18 358.48 150.58 358.48 147.54C358.48 144.12 357.32 141.47 354.99 139.61C352.74 137.67 349.9 136.19 346.49 135.18C343.07 134.17 339.66 133.2 336.24 132.26C328.63 130.55 321.64 128.22 315.28 125.26C308.99 122.23 303.98 118.38 300.26 113.71C296.53 108.97 294.67 103.17 294.67 96.33C294.67 88.86 296.65 82.41 300.61 76.97C304.65 71.45 309.97 67.21 316.56 64.26C323.16 61.3 330.18 59.83 337.64 59.83C346.96 59.83 355.5 61.81 363.26 65.78C371.02 69.75 376.96 75.19 381.08 82.11L361.87 93.54C360.71 91.21 358.96 89.11 356.63 87.24C354.3 85.37 351.66 83.9 348.71 82.81C345.76 81.64 342.69 80.98 339.51 80.83C335.55 80.67 331.86 81.14 328.45 82.23C325.11 83.24 322.43 84.87 320.41 87.13C318.39 89.39 317.38 92.26 317.38 95.76C317.38 99.26 318.58 101.75 320.99 103.46C323.4 105.09 326.42 106.42 330.07 107.43C333.8 108.44 337.6 109.57 341.48 110.81C348.39 112.99 354.87 115.67 360.93 118.86C366.99 121.97 371.88 125.82 375.6 130.41C379.33 135 381.11 140.6 380.96 147.21C380.96 154.52 378.75 160.94 374.32 166.46C369.97 171.98 364.31 176.18 357.32 179.06C350.33 181.94 342.92 183.14 335.08 182.68L335.07 182.64ZM448.22 183.46C437.51 183.46 427.72 180.7 418.87 175.18C410.1 169.66 403.07 162.27 397.79 153.02C392.59 143.69 389.99 133.38 389.99 122.11C389.99 113.56 391.5 105.59 394.53 98.2C397.56 90.73 401.71 84.2 406.99 78.6C412.35 72.92 418.56 68.49 425.62 65.3C432.69 62.11 440.22 60.52 448.21 60.52C458.92 60.52 468.67 63.28 477.44 68.8C486.29 74.32 493.32 81.75 498.52 91.08C503.8 100.41 506.44 110.75 506.44 122.11C506.44 130.59 504.93 138.52 501.9 145.91C498.87 153.3 494.68 159.83 489.32 165.51C484.04 171.11 477.87 175.5 470.8 178.69C463.81 181.88 456.28 183.47 448.21 183.47L448.22 183.46ZM448.22 159.2C454.66 159.2 460.45 157.49 465.57 154.07C470.69 150.65 474.73 146.14 477.68 140.54C480.71 134.86 482.22 128.72 482.22 122.11C482.22 115.5 480.67 109.12 477.56 103.45C474.53 97.77 470.46 93.26 465.33 89.92C460.21 86.5 454.5 84.79 448.21 84.79C441.92 84.79 436.06 86.5 430.86 89.92C425.74 93.34 421.66 97.89 418.63 103.57C415.68 109.25 414.2 115.43 414.2 122.12C414.2 128.81 415.75 135.3 418.86 140.9C421.97 146.5 426.08 150.97 431.2 154.31C436.4 157.58 442.07 159.21 448.2 159.21L448.22 159.2ZM615.7 11.46H639.92V180.43H615.7V163.28C611.9 169.35 606.93 174.24 600.79 177.98C594.66 181.63 587.48 183.46 579.25 183.46C571.02 183.46 562.87 181.87 555.49 178.68C548.11 175.49 541.59 171.1 535.93 165.5C530.34 159.82 525.95 153.29 522.77 145.9C519.59 138.51 518 130.58 518 122.1C518 113.62 519.59 105.69 522.77 98.3C525.95 90.83 530.34 84.3 535.93 78.7C541.6 73.02 548.12 68.59 555.49 65.4C562.87 62.21 570.78 60.62 579.25 60.62C587.72 60.62 594.66 62.49 600.79 66.22C606.92 69.87 611.89 74.7 615.7 80.68V11.46ZM579.48 160.01C586.31 160.01 592.29 158.34 597.41 155C602.53 151.58 606.49 146.99 609.29 141.24C612.16 135.49 613.6 129.11 613.6 122.11C613.6 115.11 612.16 108.62 609.29 102.86C606.42 97.11 602.42 92.56 597.3 89.21C592.25 85.79 586.31 84.08 579.48 84.08C572.65 84.08 566.55 85.79 560.96 89.21C555.45 92.63 551.02 97.22 547.69 102.97C544.43 108.72 542.8 115.1 542.8 122.1C542.8 129.1 544.47 135.59 547.81 141.35C551.23 147.03 555.69 151.58 561.2 155C566.79 158.34 572.88 160.01 579.48 160.01ZM714.4 183.46C703.69 183.46 693.91 180.7 685.05 175.18C676.28 169.66 669.25 162.27 663.97 153.02C658.77 143.69 656.17 133.38 656.17 122.11C656.17 113.56 657.68 105.59 660.71 98.2C663.74 90.73 667.89 84.2 673.17 78.6C678.53 72.92 684.74 68.49 691.8 65.3C698.87 62.11 706.4 60.52 714.39 60.52C725.1 60.52 734.85 63.28 743.62 68.8C752.47 74.32 759.5 81.75 764.7 91.08C769.98 100.41 772.62 110.75 772.62 122.11C772.62 130.59 771.11 138.52 768.08 145.91C765.05 153.3 760.86 159.83 755.5 165.51C750.22 171.11 744.05 175.5 736.98 178.69C729.99 181.88 722.46 183.47 714.39 183.47L714.4 183.46ZM714.4 159.2C720.84 159.2 726.63 157.49 731.75 154.07C736.87 150.65 740.91 146.14 743.86 140.54C746.89 134.86 748.4 128.72 748.4 122.11C748.4 115.5 746.85 109.12 743.74 103.45C740.71 97.77 736.64 93.26 731.51 89.92C726.39 86.5 720.68 84.79 714.39 84.79C708.1 84.79 702.24 86.5 697.04 89.92C691.92 93.34 687.84 97.89 684.81 103.57C681.86 109.25 680.38 115.43 680.38 122.12C680.38 128.81 681.93 135.3 685.04 140.9C688.15 146.5 692.26 150.97 697.38 154.31C702.58 157.58 708.25 159.21 714.38 159.21L714.4 159.2ZM847.99 88.05H826.66L826.54 180.43H802.32L802.44 88.05H781.39V63.79H802.44L802.32 27.16H826.54L826.66 63.79H847.99V88.05Z" fill="#191D50"/>
<path d="M335.07 182.64C328.94 182.25 322.96 181.01 317.14 178.91C311.32 176.81 306.19 173.97 301.77 170.4C297.42 166.75 294.16 162.47 291.99 157.57L312.6 148.71C313.61 150.81 315.36 152.87 317.84 154.89C320.4 156.91 323.39 158.58 326.81 159.91C330.23 161.15 333.8 161.78 337.52 161.78C341.24 161.78 344.55 161.27 347.65 160.26C350.83 159.17 353.43 157.54 355.45 155.36C357.47 153.18 358.48 150.58 358.48 147.54C358.48 144.12 357.32 141.47 354.99 139.61C352.74 137.67 349.9 136.19 346.49 135.18C343.07 134.17 339.66 133.2 336.24 132.26C328.63 130.55 321.64 128.22 315.28 125.26C308.99 122.23 303.98 118.38 300.26 113.71C296.53 108.97 294.67 103.17 294.67 96.33C294.67 88.86 296.65 82.41 300.61 76.97C304.65 71.45 309.97 67.21 316.56 64.26C323.16 61.3 330.18 59.83 337.64 59.83C346.96 59.83 355.5 61.81 363.26 65.78C371.02 69.75 376.96 75.19 381.08 82.11L361.87 93.54C360.71 91.21 358.96 89.11 356.63 87.24C354.3 85.37 351.66 83.9 348.71 82.81C345.76 81.64 342.69 80.98 339.51 80.83C335.55 80.67 331.86 81.14 328.45 82.23C325.11 83.24 322.43 84.87 320.41 87.13C318.39 89.39 317.38 92.26 317.38 95.76C317.38 99.26 318.58 101.75 320.99 103.46C323.4 105.09 326.42 106.42 330.07 107.43C333.8 108.44 337.6 109.57 341.48 110.81C348.39 112.99 354.87 115.67 360.93 118.86C366.99 121.97 371.88 125.82 375.6 130.41C379.33 135 381.11 140.6 380.96 147.21C380.96 154.52 378.75 160.94 374.32 166.46C369.97 171.98 364.31 176.18 357.32 179.06C350.33 181.94 342.92 183.14 335.08 182.68L335.07 182.64ZM448.22 183.46C437.51 183.46 427.72 180.7 418.87 175.18C410.1 169.66 403.07 162.27 397.79 153.02C392.59 143.69 389.99 133.38 389.99 122.11C389.99 113.56 391.5 105.59 394.53 98.2C397.56 90.73 401.71 84.2 406.99 78.6C412.35 72.92 418.56 68.49 425.62 65.3C432.69 62.11 440.22 60.52 448.21 60.52C458.92 60.52 468.67 63.28 477.44 68.8C486.29 74.32 493.32 81.75 498.52 91.08C503.8 100.41 506.44 110.75 506.44 122.11C506.44 130.59 504.93 138.52 501.9 145.91C498.87 153.3 494.68 159.83 489.32 165.51C484.04 171.11 477.87 175.5 470.8 178.69C463.81 181.88 456.28 183.47 448.21 183.47L448.22 183.46ZM448.22 159.2C454.66 159.2 460.45 157.49 465.57 154.07C470.69 150.65 474.73 146.14 477.68 140.54C480.71 134.86 482.22 128.72 482.22 122.11C482.22 115.5 480.67 109.12 477.56 103.45C474.53 97.77 470.46 93.26 465.33 89.92C460.21 86.5 454.5 84.79 448.21 84.79C441.92 84.79 436.06 86.5 430.86 89.92C425.74 93.34 421.66 97.89 418.63 103.57C415.68 109.25 414.2 115.43 414.2 122.12C414.2 128.81 415.75 135.3 418.86 140.9C421.97 146.5 426.08 150.97 431.2 154.31C436.4 157.58 442.07 159.21 448.2 159.21L448.22 159.2ZM615.7 11.46H639.92V180.43H615.7V163.28C611.9 169.35 606.93 174.24 600.79 177.98C594.66 181.63 587.48 183.46 579.25 183.46C571.02 183.46 562.87 181.87 555.49 178.68C548.11 175.49 541.59 171.1 535.93 165.5C530.34 159.82 525.95 153.29 522.77 145.9C519.59 138.51 518 130.58 518 122.1C518 113.62 519.59 105.69 522.77 98.3C525.95 90.83 530.34 84.3 535.93 78.7C541.6 73.02 548.12 68.59 555.49 65.4C562.87 62.21 570.78 60.62 579.25 60.62C587.72 60.62 594.66 62.49 600.79 66.22C606.92 69.87 611.89 74.7 615.7 80.68V11.46ZM579.48 160.01C586.31 160.01 592.29 158.34 597.41 155C602.53 151.58 606.49 146.99 609.29 141.24C612.16 135.49 613.6 129.11 613.6 122.11C613.6 115.11 612.16 108.62 609.29 102.86C606.42 97.11 602.42 92.56 597.3 89.21C592.25 85.79 586.31 84.08 579.48 84.08C572.65 84.08 566.55 85.79 560.96 89.21C555.45 92.63 551.02 97.22 547.69 102.97C544.43 108.72 542.8 115.1 542.8 122.1C542.8 129.1 544.47 135.59 547.81 141.35C551.23 147.03 555.69 151.58 561.2 155C566.79 158.34 572.88 160.01 579.48 160.01ZM714.4 183.46C703.69 183.46 693.91 180.7 685.05 175.18C676.28 169.66 669.25 162.27 663.97 153.02C658.77 143.69 656.17 133.38 656.17 122.11C656.17 113.56 657.68 105.59 660.71 98.2C663.74 90.73 667.89 84.2 673.17 78.6C678.53 72.92 684.74 68.49 691.8 65.3C698.87 62.11 706.4 60.52 714.39 60.52C725.1 60.52 734.85 63.28 743.62 68.8C752.47 74.32 759.5 81.75 764.7 91.08C769.98 100.41 772.62 110.75 772.62 122.11C772.62 130.59 771.11 138.52 768.08 145.91C765.05 153.3 760.86 159.83 755.5 165.51C750.22 171.11 744.05 175.5 736.98 178.69C729.99 181.88 722.46 183.47 714.39 183.47L714.4 183.46ZM714.4 159.2C720.84 159.2 726.63 157.49 731.75 154.07C736.87 150.65 740.91 146.14 743.86 140.54C746.89 134.86 748.4 128.72 748.4 122.11C748.4 115.5 746.85 109.12 743.74 103.45C740.71 97.77 736.64 93.26 731.51 89.92C726.39 86.5 720.68 84.79 714.39 84.79C708.1 84.79 702.24 86.5 697.04 89.92C691.92 93.34 687.84 97.89 684.81 103.57C681.86 109.25 680.38 115.43 680.38 122.12C680.38 128.81 681.93 135.3 685.04 140.9C688.15 146.5 692.26 150.97 697.38 154.31C702.58 157.58 708.25 159.21 714.38 159.21L714.4 159.2ZM847.99 88.05H826.66L826.54 180.43H802.32L802.44 88.05H781.39V63.79H802.44L802.32 27.16H826.54L826.66 63.79H847.99V88.05Z" fill="#191D50"/>
<path d="M77.0899 179.35C64.7199 179.35 53.97 172.44 46.83 159.88C40.86 149.37 37.7 135.43 37.7 119.56C37.7 103.69 40.8499 89.69 46.7999 79.09C53.9499 66.37 64.6999 59.36 77.0899 59.36C101.08 59.36 130.37 91.27 136.05 111.31C137.47 116.32 137.47 122.8 136.05 127.81C130.41 147.69 101.14 179.35 77.0899 179.35ZM77.0899 83.36C67.5899 83.36 61.7 102.15 61.7 119.56C61.7 141.96 69.5199 155.35 77.0899 155.35C80.8999 155.35 88.6299 151.65 97.3099 143.4C106.13 135.01 111.61 126.05 112.96 121.27C113.17 120.51 113.17 118.63 112.96 117.86C109.21 104.64 87.0899 83.37 77.0899 83.37V83.36Z" fill="url(#paint0_linear_3_1626)"/>
<path d="M180.04 131.58C177.36 126.18 174.83 121.09 174.83 119.57C174.83 118.08 177.33 113.04 179.98 107.71L181.1 105.46C181.79 104.07 183.58 100.51 185.99 95.72C195.47 76.89 205.55 56.82 211.01 45.48H184.29C177.82 58.58 169.24 75.61 164.55 84.93C162.1 89.79 160.29 93.4 159.59 94.81L158.49 97.04C148.24 117.68 148.24 121.49 158.55 142.25L159.59 144.35C161.51 148.23 174.6 175.72 183.18 194.01H209.66C202.09 177.58 183.58 138.7 181.1 133.7L180.05 131.58H180.04Z" fill="url(#paint1_linear_3_1626)"/>
<path d="M238.55 237.12H6.69C3 237.12 0 234.12 0 230.43V6.69C0 3 3 0 6.69 0H238.55C242.24 0 245.24 3 245.24 6.69V230.44C245.24 234.13 242.24 237.13 238.55 237.13V237.12ZM13.38 223.74H231.86V13.38H13.38V223.75V223.74Z" fill="url(#paint2_linear_3_1626)"/>
</g>
<defs>
<linearGradient id="paint0_linear_3_1626" x1="-32.9801" y1="10.77" x2="266.16" y2="300.1" gradientUnits="userSpaceOnUse">
<stop offset="0.28" stop-color="#FA337C"/>
<stop offset="0.33" stop-color="#CE3EA4"/>
<stop offset="0.38" stop-color="#A946C5"/>
<stop offset="0.43" stop-color="#8C4CDE"/>
<stop offset="0.47" stop-color="#7851F0"/>
<stop offset="0.52" stop-color="#6C54FB"/>
<stop offset="0.57" stop-color="#6855FF"/>
</linearGradient>
<linearGradient id="paint1_linear_3_1626" x1="39.69" y1="-32.49" x2="311.07" y2="229.98" gradientUnits="userSpaceOnUse">
<stop offset="0.44" stop-color="#FA337C"/>
<stop offset="0.48" stop-color="#CE3EA4"/>
<stop offset="0.52" stop-color="#A946C5"/>
<stop offset="0.56" stop-color="#8C4CDE"/>
<stop offset="0.6" stop-color="#7851F0"/>
<stop offset="0.63" stop-color="#6C54FB"/>
<stop offset="0.67" stop-color="#6855FF"/>
</linearGradient>
<linearGradient id="paint2_linear_3_1626" x1="-11.64" y1="-11.3" x2="287.5" y2="278.03" gradientUnits="userSpaceOnUse">
<stop offset="0.07" stop-color="#FF3379"/>
<stop offset="0.09" stop-color="#F63480"/>
<stop offset="0.24" stop-color="#CB3EA6"/>
<stop offset="0.39" stop-color="#A746C6"/>
<stop offset="0.54" stop-color="#8B4CDF"/>
<stop offset="0.69" stop-color="#7751F0"/>
<stop offset="0.85" stop-color="#6B54FB"/>
<stop offset="1" stop-color="#6855FF"/>
</linearGradient>
<clipPath id="clip0_3_1626">
<rect width="847.98" height="237.12" fill="white"/>
</clipPath>
</defs>
</svg>
